<svg id="Layer_1" data-name="Layer 1" xmlns="http://www.w3.org/2000/svg" viewBox="0 0 711.8 133.07"><title>6733new</title><text transform="translate(0 62.51)" font-size="12" fill="#231f20" font-family="SanFranciscoDisplay-Semibold, San Francisco Display" font-weight="700">On Campus : <tspan x="69.05" y="0" letter-spacing="-0.01em">6</tspan><tspan x="75.77" y="0">7</tspan></text><text transform="translate(265.6 103.9)" font-size="13.91" fill="#231f20" font-family="SanFranciscoDisplay-Semibold, San Francisco Display" font-weight="700">=5</text><path d="M290.09,101.67a1.43,1.43,0,1,0,1.43-1.42A1.43,1.43,0,0,0,290.09,101.67Z" transform="translate(-40.1 -10.65)" fill="#6dcff6"/><path d="M293,103.69c-.27,0-.93-.06-1.28-.06h-1l-1,0-3.44-5.27-1,.63,3.51,6.55v16.27h1.46l1.1-7.5,1,7.5h1.46l.08-15.52,1.87,5.17,1.16-.41-1.62-5.49A2.35,2.35,0,0,0,293,103.69Z" transform="translate(-40.1 -10.65)" fill="#6dcff6"/><path d="M231.11,91.58a1.43,1.43,0,1,0,1.43-1.43A1.43,1.43,0,0,0,231.11,91.58Z" transform="translate(-40.1 -10.65)" fill="#6dcff6"/><path d="M234,93.59c-.27,0-.93,0-1.28,0h-.95l-1,0-3.44-5.28-1,.63,3.51,6.55v16.27h1.46l1.1-7.49,1,7.49h1.46l.08-15.51,1.87,5.16,1.16-.4-1.62-5.49A2.38,2.38,0,0,0,234,93.59Z" transform="translate(-40.1 -10.65)" fill="#6dcff6"/><path d="M242.73,78.71a1.42,1.42,0,1,0,1.42-1.42A1.42,1.42,0,0,0,242.73,78.71Z" transform="translate(-40.1 -10.65)" fill="#6dcff6"/><path d="M245.64,80.73c-.26,0-.92-.06-1.28-.06h-.94l-1,0L239,75.38l-1,.63,3.51,6.55V98.83h1.47L244,91.34l1,7.49h1.46l.07-15.51,1.88,5.16,1.15-.41-1.61-5.49A2.37,2.37,0,0,0,245.64,80.73Z" transform="translate(-40.1 -10.65)" fill="#6dcff6"/><path d="M258.49,67a1.43,1.43,0,1,0,1.42-1.42A1.42,1.42,0,0,0,258.49,67Z" transform="translate(-40.1 -10.65)" fill="#6dcff6"/><path d="M261.41,69c-.27,0-.93,0-1.29,0h-.94l-1,0-3.44-5.27-1,.63,3.52,6.54V87.1h1.46l1.09-7.49,1,7.49h1.46l.08-15.51,1.87,5.16,1.16-.4-1.62-5.49A2.38,2.38,0,0,0,261.41,69Z" transform="translate(-40.1 -10.65)" fill="#6dcff6"/><path d="M226.42,63.25a1.42,1.42,0,1,0,1.42-1.43A1.42,1.42,0,0,0,226.42,63.25Z" transform="translate(-40.1 -10.65)" fill="#6dcff6"/><path d="M229.33,65.26c-.26,0-.92-.05-1.28-.05h-.94l-1,0-3.45-5.28-1,.63,3.51,6.55V83.36h1.47l1.09-7.49,1,7.49h1.46l.07-15.51L232.09,73l1.15-.4-1.61-5.49A2.39,2.39,0,0,0,229.33,65.26Z" transform="translate(-40.1 -10.65)" fill="#6dcff6"/><path d="M209.81,67a1.43,1.43,0,1,0,1.42-1.42A1.42,1.42,0,0,0,209.81,67Z" transform="translate(-40.1 -10.65)" fill="#6dcff6"/><path d="M212.73,69c-.27,0-.93,0-1.29,0h-.94l-1,0-3.44-5.27-1,.63,3.52,6.54V87.1H210l1.09-7.49,1,7.49h1.46l.08-15.51,1.87,5.16,1.16-.4L215,70.86A2.38,2.38,0,0,0,212.73,69Z" transform="translate(-40.1 -10.65)" fill="#6dcff6"/><path d="M241.7,43.54a1.43,1.43,0,1,0,1.43-1.42A1.43,1.43,0,0,0,241.7,43.54Z" transform="translate(-40.1 -10.65)" fill="#6dcff6"/><path d="M244.62,45.56c-.27,0-.93-.06-1.28-.06h-1l-1,0-3.44-5.27-1,.63,3.51,6.55V63.66h1.46l1.1-7.5,1,7.5h1.47l.07-15.52,1.87,5.16,1.16-.4-1.61-5.49A2.37,2.37,0,0,0,244.62,45.56Z" transform="translate(-40.1 -10.65)" fill="#6dcff6"/><path d="M219.5,39.8a1.43,1.43,0,1,0,1.42-1.43A1.42,1.42,0,0,0,219.5,39.8Z" transform="translate(-40.1 -10.65)" fill="#6dcff6"/><path d="M222.42,41.81c-.27,0-.93-.05-1.29-.05h-.94l-1,0-3.44-5.27-1,.63,3.52,6.54V59.91h1.46l1.09-7.49,1,7.49h1.46l.07-15.51,1.88,5.16,1.16-.4-1.62-5.49A2.38,2.38,0,0,0,222.42,41.81Z" transform="translate(-40.1 -10.65)" fill="#6dcff6"/><path d="M194.59,47.61A1.43,1.43,0,1,0,196,46.19,1.43,1.43,0,0,0,194.59,47.61Z" transform="translate(-40.1 -10.65)" fill="#6dcff6"/><path d="M197.51,49.63c-.27,0-.93-.06-1.29-.06h-.94l-1,0-3.44-5.27-1,.63,3.52,6.55V67.73h1.46l1.09-7.5,1,7.5h1.46l.08-15.52,1.87,5.17,1.16-.41-1.62-5.49A2.36,2.36,0,0,0,197.51,49.63Z" transform="translate(-40.1 -10.65)" fill="#6dcff6"/><path d="M196.41,65.68a1.43,1.43,0,1,0,1.43-1.42A1.43,1.43,0,0,0,196.41,65.68Z" transform="translate(-40.1 -10.65)" fill="#6dcff6"/><path d="M199.33,67.7c-.27,0-.93-.06-1.28-.06h-2l-3.44-5.28-1,.63,3.51,6.55V85.8h1.46l1.1-7.49,1,7.49h1.47l.07-15.51,1.87,5.16,1.16-.41-1.61-5.49A2.37,2.37,0,0,0,199.33,67.7Z" transform="translate(-40.1 -10.65)" fill="#6dcff6"/><path d="M208,40.65a1.43,1.43,0,1,0,1.42-1.43A1.42,1.42,0,0,0,208,40.65Z" transform="translate(-40.1 -10.65)" fill="#6dcff6"/><path d="M211,42.66c-.27,0-.93-.06-1.29-.06h-1.95l-3.44-5.28-1,.63,3.51,6.55V60.76h1.47l1.09-7.49,1,7.49h1.46l.07-15.51,1.88,5.16,1.16-.4-1.62-5.49A2.38,2.38,0,0,0,211,42.66Z" transform="translate(-40.1 -10.65)" fill="#6dcff6"/><path d="M266.12,51.52a1.43,1.43,0,1,0,1.43-1.42A1.43,1.43,0,0,0,266.12,51.52Z" transform="translate(-40.1 -10.65)" fill="#6dcff6"/><path d="M269,53.54c-.27,0-.93-.06-1.28-.06h-.95l-1,0-3.44-5.27-1,.63,3.51,6.55V71.64h1.46l1.1-7.5,1,7.5h1.46l.08-15.52,1.87,5.16,1.16-.4-1.62-5.49A2.36,2.36,0,0,0,269,53.54Z" transform="translate(-40.1 -10.65)" fill="#6dcff6"/><path d="M250.36,53.43A1.43,1.43,0,1,0,251.78,52,1.42,1.42,0,0,0,250.36,53.43Z" transform="translate(-40.1 -10.65)" fill="#6dcff6"/><path d="M253.28,55.44c-.27,0-.93,0-1.29,0h-.94l-1,0L246.6,50.1l-1,.63,3.52,6.54V73.54h1.46l1.09-7.49,1,7.49h1.46L254.15,58,256,63.19l1.16-.4-1.62-5.49A2.38,2.38,0,0,0,253.28,55.44Z" transform="translate(-40.1 -10.65)" fill="#6dcff6"/><path d="M232.22,35.15a1.43,1.43,0,1,0,1.43-1.42A1.43,1.43,0,0,0,232.22,35.15Z" transform="translate(-40.1 -10.65)" fill="#6dcff6"/><path d="M235.14,37.16c-.27,0-.93,0-1.28,0h-1l-1,0-3.44-5.27-1,.63L231,39V55.27h1.46l1.1-7.5,1,7.5H236L236,39.75l1.87,5.16,1.16-.4L237.43,39A2.37,2.37,0,0,0,235.14,37.16Z" transform="translate(-40.1 -10.65)" fill="#6dcff6"/><path d="M221.32,18.06a1.43,1.43,0,1,0,1.43-1.43A1.43,1.43,0,0,0,221.32,18.06Z" transform="translate(-40.1 -10.65)" fill="#6dcff6"/><path d="M224.24,20.07c-.27,0-.93-.05-1.28-.05h-1l-1,0-3.44-5.27-1,.63,3.51,6.54V38.17h1.46l1.1-7.49,1,7.49h1.47l.07-15.51L227,27.82l1.16-.4-1.61-5.49A2.39,2.39,0,0,0,224.24,20.07Z" transform="translate(-40.1 -10.65)" fill="#6dcff6"/><line x1="120.63" y1="60.67" x2="191.84" y2="112.97" fill="#726c8f" stroke="#6dcff6" stroke-miterlimit="10" stroke-width="0.5"/><line x1="183.55" y1="1.11" x2="255.28" y2="53.93" fill="#726c8f" stroke="#6dcff6" stroke-miterlimit="10" stroke-width="0.5"/><line x1="120.63" y1="60.67" x2="183.55" y2="1.11" fill="#726c8f" stroke="#6dcff6" stroke-miterlimit="10" stroke-width="0.5"/><line x1="191.84" y1="112.97" x2="255.28" y2="53.93" fill="#726c8f" stroke="#6dcff6" stroke-miterlimit="10" stroke-width="0.5"/><polygon points="182.51 20.03 182.51 9.37 184.14 9.42 185.79 10.15 188.05 16.77 186.9 17.17 185.02 12.01 184.95 27.52 183.49 27.52 182.51 20.03" fill="#fff"/><text transform="translate(372.2 61.97)" font-size="12" fill="#231f20" font-family="SanFranciscoDisplay-Semibold, San Francisco Display" font-weight="700">O<tspan x="7.85" y="0" letter-spacing="0.01em">f</tspan><tspan x="12.21" y="0">f Campus:33</tspan></text><text transform="translate(659.74 108.19)" font-size="14.28" fill="#231f20" font-family="SanFranciscoDisplay-Semibold, San Francisco Display" font-weight="700">=5</text><path d="M687,103.16a1.46,1.46,0,1,0,1.46-1.46A1.46,1.46,0,0,0,687,103.16Z" transform="translate(-40.1 -10.65)" fill="#726c8f"/><path d="M690,105.23c-.27,0-1-.06-1.31-.06h-1l-1,0-3.53-5.41-1,.65,3.6,6.72v16.7h1.5l1.13-7.69,1,7.69h1.5l.08-15.93,1.92,5.3,1.19-.41-1.66-5.64A2.44,2.44,0,0,0,690,105.23Z" transform="translate(-40.1 -10.65)" fill="#726c8f"/><line x1="514.08" y1="61.34" x2="587.18" y2="115.04" fill="#6dcff6" stroke="#726c8f" stroke-miterlimit="10" stroke-width="0.5"/><line x1="578.68" y1="0.2" x2="652.31" y2="54.43" fill="#6dcff6" stroke="#726c8f" stroke-miterlimit="10" stroke-width="0.5"/><line x1="514.08" y1="61.34" x2="578.68" y2="0.2" fill="#6dcff6" stroke="#726c8f" stroke-miterlimit="10" stroke-width="0.5"/><line x1="587.18" y1="115.04" x2="652.31" y2="54.43" fill="#6dcff6" stroke="#726c8f" stroke-miterlimit="10" stroke-width="0.5"/><path d="M628.64,45.31a1.47,1.47,0,1,0,1.47-1.47A1.47,1.47,0,0,0,628.64,45.31Z" transform="translate(-40.1 -10.65)" fill="#726c8f"/><path d="M631.64,47.37c-.28,0-.95,0-1.32,0h-1l-1,0-3.53-5.41-1,.64,3.61,6.72V66h1.5l1.12-7.7,1,7.7h1.51L632.54,50l1.93,5.3,1.18-.41L634,49.28A2.44,2.44,0,0,0,631.64,47.37Z" transform="translate(-40.1 -10.65)" fill="#726c8f"/><path d="M654.79,55.78a1.47,1.47,0,1,0,1.46-1.46A1.46,1.46,0,0,0,654.79,55.78Z" transform="translate(-40.1 -10.65)" fill="#726c8f"/><path d="M657.79,57.85c-.28,0-.95-.06-1.32-.06h-1l-1,0-3.53-5.41-1,.65,3.61,6.72v16.7H655l1.12-7.69,1,7.69h1.5l.08-15.92,1.92,5.3,1.19-.42-1.66-5.63A2.43,2.43,0,0,0,657.79,57.85Z" transform="translate(-40.1 -10.65)" fill="#726c8f"/><path d="M622.68,71.35a1.47,1.47,0,1,0,1.46-1.46A1.46,1.46,0,0,0,622.68,71.35Z" transform="translate(-40.1 -10.65)" fill="#726c8f"/><path d="M625.68,73.42c-.28,0-.95-.06-1.32-.06h-1l-1,0-3.53-5.41-1.05.64,3.61,6.72V92h1.5L624,84.31,625,92h1.5l.08-15.93,1.92,5.3,1.19-.41L628,75.32A2.42,2.42,0,0,0,625.68,73.42Z" transform="translate(-40.1 -10.65)" fill="#726c8f"/><path d="M597,57.34a1.46,1.46,0,1,0,1.46-1.46A1.46,1.46,0,0,0,597,57.34Z" transform="translate(-40.1 -10.65)" fill="#726c8f"/><path d="M600,59.41c-.28,0-1-.06-1.32-.06h-1l-1,0-3.53-5.41-1,.65,3.6,6.72V78h1.5l1.13-7.69,1,7.69h1.5l.08-15.92,1.92,5.29L604,67l-1.66-5.63A2.43,2.43,0,0,0,600,59.41Z" transform="translate(-40.1 -10.65)" fill="#726c8f"/><path d="M609.94,45.31a1.46,1.46,0,1,0,1.46-1.47A1.47,1.47,0,0,0,609.94,45.31Z" transform="translate(-40.1 -10.65)" fill="#726c8f"/><path d="M612.94,47.37c-.28,0-1,0-1.32,0h-1l-1,0-3.53-5.41-1.05.64,3.6,6.72V66h1.51l1.12-7.7,1,7.7h1.5L613.84,50l1.92,5.3,1.19-.41-1.66-5.64A2.45,2.45,0,0,0,612.94,47.37Z" transform="translate(-40.1 -10.65)" fill="#726c8f"/><path d="M639.94,35.23a1.47,1.47,0,1,0,1.47-1.46A1.46,1.46,0,0,0,639.94,35.23Z" transform="translate(-40.1 -10.65)" fill="#726c8f"/><path d="M642.94,37.3c-.27,0-1-.06-1.32-.06h-1l-1,0-3.54-5.41-1.05.65,3.61,6.72v16.7h1.5l1.12-7.69,1,7.69h1.5L643.84,40l1.93,5.3,1.19-.41L645.3,39.2A2.44,2.44,0,0,0,642.94,37.3Z" transform="translate(-40.1 -10.65)" fill="#726c8f"/><path d="M620,19a1.46,1.46,0,1,0,1.46-1.47A1.46,1.46,0,0,0,620,19Z" transform="translate(-40.1 -10.65)" fill="#726c8f"/><path d="M620.7,21l-1,0-3.53-5.41-1,.64,3.6,6.72V39.6h1.5l1.13-7.7.62,4.79.38,2.91h1.5l.08-15.93,1.92,5.3,1.19-.41-1.66-5.64C624.63,20.88,620.7,21,620.7,21Z" transform="translate(-40.1 -10.65)" fill="#fff"/><polygon points="581.97 27.12 582.06 10.41 582.65 10.52 583.5 10.76 584.45 11.25 584.99 11.79 586.9 17.9 585.71 18.32 583.79 13.02 583.71 28.95 582.21 28.95 581.97 27.12" fill="#726c8f"/></svg>