<svg id="Capa_1" data-name="Capa 1" xmlns="http://www.w3.org/2000/svg" viewBox="0 0 368 298"><title>duihau</title><path d="M313.7,8H52.75a46,46,0,0,0-46,46V184.47a46,46,0,0,0,46,46H73.32A133.9,133.9,0,0,1,55,262.38a17.91,17.91,0,0,0-.9,20.89,17.65,17.65,0,0,0,14.94,8.25,18,18,0,0,0,4.16-.48C123,279.41,152,252.45,168.05,230.47H313.7a46,46,0,0,0,46-46V54A46,46,0,0,0,313.7,8Zm28.56,176.47A28.6,28.6,0,0,1,313.7,213H163.54a8.73,8.73,0,0,0-7.21,3.8c-13.65,20-39.85,46.2-87.08,57.23a1,1,0,0,1-.22,0,.9.9,0,0,1-.36-.49.54.54,0,0,1,.14-.55A151.53,151.53,0,0,0,94,224.29,8.73,8.73,0,0,0,85.64,213H52.76A28.59,28.59,0,0,1,24.2,184.47V54A28.59,28.59,0,0,1,52.76,25.44H313.7A28.59,28.59,0,0,1,342.26,54V184.47Z"/></svg>