<svg id="Layer_1" data-name="Layer 1" xmlns="http://www.w3.org/2000/svg" viewBox="0 0 441.32 441.32"><defs><style>.cls-1{fill:#6d6e71;opacity:0.33;}.cls-2{fill:#58595b;}.cls-11,.cls-2{stroke:#be1e2d;stroke-miterlimit:10;stroke-width:3px;opacity:0.27;}.cls-3{font-size:21px;fill:#231f20;font-family:SanFranciscoDisplay-Semibold, San Francisco Display;font-weight:700;}.cls-4{letter-spacing:0em;}.cls-5{letter-spacing:0em;}.cls-6{letter-spacing:0.01em;}.cls-7{letter-spacing:0.01em;}.cls-8{font-size:22.6px;}.cls-9{letter-spacing:-0.02em;}.cls-10{letter-spacing:0.01em;}.cls-11{fill:#59595b;}.cls-12{letter-spacing:-0.01em;}.cls-13{letter-spacing:0em;}.cls-14{letter-spacing:0.01em;}.cls-15{letter-spacing:0.01em;}</style></defs><title>How haard2</title><circle class="cls-1" cx="220.66" cy="220.66" r="220.66"/><circle class="cls-2" cx="127.2" cy="255.87" r="72.47"/><circle class="cls-2" cx="302.83" cy="161.13" r="74.36"/><text class="cls-3" transform="translate(253.94 161.99)">A<tspan class="cls-4" x="12.74" y="0">c</tspan><tspan class="cls-5" x="23.61" y="0">ademic</tspan><tspan x="92.74" y="0">-</tspan><tspan class="cls-6" x="0" y="27.12">S</tspan><tspan class="cls-7" x="12.42" y="27.12">t</tspan><tspan class="cls-4" x="20.15" y="27.12">r</tspan><tspan class="cls-5" x="27.77" y="27.12">ess</tspan><tspan class="cls-8" x="60.01" y="27.12"> </tspan></text><circle class="cls-2" cx="253.94" cy="334.22" r="62.73"/><text class="cls-3" transform="translate(215.51 329.65)">Financial <tspan class="cls-9" x="0" y="25.2">W</tspan><tspan x="17.21" y="25.2">o</tspan><tspan class="cls-10" x="28.89" y="25.2">rr</tspan><tspan x="44.75" y="25.2">ies</tspan></text><circle class="cls-11" cx="149.86" cy="118.89" r="57.61"/><text class="cls-3" transform="translate(66.93 244.08)"><tspan class="cls-12">F<tspan class="cls-5" x="10.68" y="0">amilies and </tspan></tspan><tspan x="0" y="25.2">Rel</tspan><tspan class="cls-13" x="29.47" y="25.2">a</tspan><tspan class="cls-14" x="40.53" y="25.2">t</tspan><tspan class="cls-5" x="48.26" y="25.2">ionships</tspan></text><text class="cls-3" transform="translate(106.04 113.98)">Social <tspan x="0" y="25.2">conce</tspan><tspan class="cls-15" x="56.91" y="25.2">r</tspan><tspan class="cls-5" x="64.84" y="25.2">ns</tspan></text></svg>