<svg id="main" xmlns="http://www.w3.org/2000/svg" viewBox="0 0 794.06 606.93"><title>WHY within</title><circle cx="396.07" cy="309" r="109.66" fill="#58595b" stroke="#be1e2d" stroke-miterlimit="10" stroke-width="3" opacity="0.27"/><text transform="translate(322.81 260.95)" font-size="22.05" fill="#231f20" font-family="SanFranciscoDisplay-Semibold, San Francisco Display" font-weight="700">A Be<tspan x="43.03" y="0" letter-spacing="0.01em">t</tspan><tspan x="51.21" y="0" letter-spacing="0em">t</tspan><tspan x="59.15" y="0">er </tspan><tspan x="0" y="26.46">School-</tspan><tspan x="75.68" y="26.46" letter-spacing="0.01em">L</tspan><tspan x="86.74" y="26.46">i</tspan><tspan x="92.46" y="26.46" letter-spacing="-0.01em">f</tspan><tspan x="100.12" y="26.46">e </tspan><tspan x="0" y="52.92">Balance Th</tspan><tspan x="106.98" y="52.92" letter-spacing="0em">r</tspan><tspan x="114.98" y="52.92">ough </tspan><tspan x="0" y="79.37">Using “</tspan><tspan x="70.73" y="79.37" letter-spacing="0.01em">WI</tspan><tspan x="95.58" y="79.37">THIN”</tspan></text><text transform="translate(242.82 183.46)" font-size="10" fill="#231f20" font-family="SanFranciscoDisplay-Semibold, San Francisco Display" font-weight="700">Sel<tspan x="13.76" y="0" letter-spacing="-0.03em">f</tspan><tspan x="16.96" y="0">-Mo</tspan><tspan x="34.26" y="0" letter-spacing="0.01em">ti</tspan><tspan x="40.61" y="0">vi</tspan><tspan x="48.06" y="0" letter-spacing="0em">a</tspan><tspan x="53.33" y="0" letter-spacing="0.01em">t</tspan><tspan x="57.01" y="0">ion</tspan></text><circle cx="385.86" cy="136.32" r="39.43" fill="#58595b" stroke="#be1e2d" stroke-miterlimit="10" stroke-width="3" opacity="0.27"/><circle cx="482.39" cy="162.43" r="39.43" fill="#58595b" stroke="#be1e2d" stroke-miterlimit="10" stroke-width="3" opacity="0.27"/><text transform="translate(357.6 140.2)" font-size="10" fill="#231f20" font-family="SanFranciscoDisplay-Semibold, San Francisco Display" font-weight="700">F<tspan x="5.16" y="0" letter-spacing="0.01em">r</tspan><tspan x="8.94" y="0">iendship</tspan></text><text transform="translate(532.67 137.15)" font-size="10" fill="#231f20" font-family="SanFranciscoDisplay-Semibold, San Francisco Display" font-weight="700">Open <tspan x="25.45" y="0" letter-spacing="0.01em">W</tspan><tspan x="33.99" y="0" letter-spacing="0em">i</tspan><tspan x="36.55" y="0" letter-spacing="0.01em">t</tspan><tspan x="40.23" y="0">hin</tspan></text><text transform="translate(696.53 382.52)" font-size="10" fill="#231f20" font-family="SanFranciscoDisplay-Semibold, San Francisco Display" font-weight="700">Open <tspan x="25.45" y="0" letter-spacing="0.01em">W</tspan><tspan x="33.99" y="0" letter-spacing="0em">i</tspan><tspan x="36.55" y="0" letter-spacing="0.01em">t</tspan><tspan x="40.23" y="0">hin</tspan></text><text transform="translate(713.6 506.53)" font-size="10" fill="#231f20" font-family="SanFranciscoDisplay-Semibold, San Francisco Display" font-weight="700">See Wh<tspan x="32.76" y="0" letter-spacing="0em">a</tspan><tspan x="38.03" y="0">t </tspan><tspan x="0" y="12">Sy</tspan><tspan x="10.78" y="12" letter-spacing="0em">s</tspan><tspan x="15.74" y="12" letter-spacing="0em">t</tspan><tspan x="19.34" y="12">em </tspan><tspan x="0" y="24">M</tspan><tspan x="7.9" y="24" letter-spacing="0em">at</tspan><tspan x="16.76" y="24">ch For </tspan><tspan x="0" y="36" letter-spacing="-0.06em">Y</tspan><tspan x="4.93" y="36">ou</tspan></text><text transform="translate(201.77 375.04)" font-size="10" fill="#231f20" font-family="SanFranciscoDisplay-Semibold, San Francisco Display" font-weight="700">Open <tspan x="25.45" y="0" letter-spacing="0.01em">W</tspan><tspan x="33.99" y="0" letter-spacing="0em">i</tspan><tspan x="36.55" y="0" letter-spacing="0.01em">t</tspan><tspan x="40.23" y="0">hin</tspan></text><text transform="translate(133.38 124.66)" font-size="10" fill="#231f20" font-family="SanFranciscoDisplay-Semibold, San Francisco Display" font-weight="700">Open <tspan x="25.45" y="0" letter-spacing="0.01em">W</tspan><tspan x="33.99" y="0" letter-spacing="0em">i</tspan><tspan x="36.55" y="0" letter-spacing="0.01em">t</tspan><tspan x="40.23" y="0">hin</tspan></text><text transform="translate(233.08 439.84)" font-size="10" fill="#231f20" font-family="SanFranciscoDisplay-Semibold, San Francisco Display" font-weight="700">Fi<tspan x="7.75" y="0" letter-spacing="0em">l</tspan><tspan x="10.29" y="0" letter-spacing="0em">t</tspan><tspan x="13.89" y="0">er </tspan><tspan x="24.89" y="0" letter-spacing="0.01em">t</tspan><tspan x="28.57" y="0">he </tspan><tspan x="0" y="12" letter-spacing="0.02em">g</tspan><tspan x="5.97" y="12" letter-spacing="0.01em">y</tspan><tspan x="11.07" y="12">m hour</tspan></text><text transform="translate(167.56 177.91)" font-size="10" fill="#231f20" font-family="SanFranciscoDisplay-Semibold, San Francisco Display" font-weight="700">Choose <tspan x="0" y="12">I</tspan><tspan x="2.65" y="12" letter-spacing="0em">nt</tspan><tspan x="11.99" y="12">ens</tspan><tspan x="28.12" y="12" letter-spacing="0em">i</tspan><tspan x="30.68" y="12" letter-spacing="0.03em">t</tspan><tspan x="34.57" y="12">y </tspan><tspan x="0" y="24">Le</tspan><tspan x="10.32" y="24" letter-spacing="0em">v</tspan><tspan x="15.13" y="24">el </tspan><tspan x="25.05" y="24" letter-spacing="0em">o</tspan><tspan x="30.59" y="24">f </tspan><tspan x="0" y="36">Class</tspan></text><text transform="translate(583.47 196.48)" font-size="10" fill="#231f20" font-family="SanFranciscoDisplay-Semibold, San Francisco Display" font-weight="700"><tspan letter-spacing="0.01em">S</tspan><tspan x="5.91" y="0">tude</tspan><tspan x="26.48" y="0" letter-spacing="0em">n</tspan><tspan x="32.22" y="0">ts </tspan><tspan x="0" y="12">E</tspan><tspan x="5.46" y="12" letter-spacing="-0.01em">x</tspan><tspan x="10.46" y="12">clus</tspan><tspan x="28.94" y="12" letter-spacing="0.01em">i</tspan><tspan x="31.6" y="12" letter-spacing="0em">v</tspan><tspan x="36.41" y="12" xml:space="preserve">e  </tspan><tspan x="0" y="24">Discou</tspan><tspan x="30.51" y="24" letter-spacing="0em">n</tspan><tspan x="36.25" y="24">t</tspan></text><text transform="translate(731.53 435.07)" font-size="10" fill="#231f20" font-family="SanFranciscoDisplay-Semibold, San Francisco Display" font-weight="700">Set up <tspan x="0" y="12">Home and </tspan><tspan x="0" y="24" letter-spacing="-0.01em">F</tspan><tspan x="5.09" y="24" letter-spacing="0em">a</tspan><tspan x="10.34" y="24" letter-spacing="0em">v</tspan><tspan x="15.15" y="24">o</tspan><tspan x="20.72" y="24" letter-spacing="0.01em">r</tspan><tspan x="24.49" y="24" letter-spacing="0em">i</tspan><tspan x="27.06" y="24" letter-spacing="0em">t</tspan><tspan x="30.65" y="24">es </tspan><tspan x="0" y="36">Spots </tspan></text><text transform="translate(660.59 221.53)" font-size="10" fill="#231f20" font-family="SanFranciscoDisplay-Semibold, San Francisco Display" font-weight="700">Pick up <tspan x="0" y="12" letter-spacing="-0.01em">F</tspan><tspan x="5.09" y="12" letter-spacing="0em">a</tspan><tspan x="10.34" y="12" letter-spacing="0em">v</tspan><tspan x="15.15" y="12">o</tspan><tspan x="20.72" y="12" letter-spacing="0.01em">r</tspan><tspan x="24.49" y="12" letter-spacing="0em">i</tspan><tspan x="27.06" y="12" letter-spacing="0em">t</tspan><tspan x="30.65" y="12">e</tspan><tspan x="0" y="24">Class</tspan></text><text transform="translate(151.71 253.09)" font-size="10" fill="#231f20" font-family="SanFranciscoDisplay-Semibold, San Francisco Display" font-weight="700">Se<tspan x="11.2" y="0" letter-spacing="0.01em">t</tspan><tspan x="14.91" y="0" letter-spacing="0.01em">t</tspan><tspan x="18.59" y="0">ing </tspan><tspan x="0" y="12">F</tspan><tspan x="5.16" y="12" letter-spacing="0em">i</tspan><tspan x="7.72" y="12" letter-spacing="0.01em">t</tspan><tspan x="11.41" y="12">ness </tspan><tspan x="0" y="24" letter-spacing="0em">G</tspan><tspan x="6.35" y="24">oal </tspan></text><text transform="translate(214.79 503.91)" font-size="10" fill="#231f20" font-family="SanFranciscoDisplay-Semibold, San Francisco Display" font-weight="700">Pick up <tspan x="34.17" y="0" letter-spacing="0.01em">t</tspan><tspan x="37.85" y="0">he </tspan><tspan x="0" y="12" letter-spacing="0.02em">g</tspan><tspan x="5.97" y="12" letter-spacing="0.01em">y</tspan><tspan x="11.07" y="12">m hours </tspan><tspan x="0" y="24" letter-spacing="0em">w</tspan><tspan x="7.49" y="24">o</tspan><tspan x="13.06" y="24" letter-spacing="0.01em">r</tspan><tspan x="16.83" y="24" letter-spacing="-0.01em">k</tspan><tspan x="21.88" y="24">s </tspan><tspan x="28.84" y="24" letter-spacing="-0.01em">f</tspan><tspan x="32.32" y="24">or </tspan><tspan x="43.51" y="24" letter-spacing="0em">y</tspan><tspan x="48.42" y="24">ou</tspan></text><text transform="translate(171.22 565.47)" font-size="10" fill="#231f20" font-family="SanFranciscoDisplay-Semibold, San Francisco Display" font-weight="700"><tspan letter-spacing="0em">E</tspan><tspan x="5.44" y="0" letter-spacing="0em">n</tspan><tspan x="11.23" y="0">j</tspan><tspan x="13.82" y="0" letter-spacing="0em">o</tspan><tspan x="19.36" y="0">y!</tspan></text><text transform="translate(740.6 218.09)" font-size="10" fill="#231f20" font-family="SanFranciscoDisplay-Semibold, San Francisco Display" font-weight="700"><tspan letter-spacing="0em">E</tspan><tspan x="5.44" y="0" letter-spacing="0em">n</tspan><tspan x="11.23" y="0">j</tspan><tspan x="13.82" y="0" letter-spacing="0em">o</tspan><tspan x="19.36" y="0">y!</tspan></text><text transform="translate(96.08 315.33)" font-size="10" fill="#231f20" font-family="SanFranciscoDisplay-Semibold, San Francisco Display" font-weight="700"><tspan letter-spacing="0em">E</tspan><tspan x="5.44" y="0" letter-spacing="0em">n</tspan><tspan x="11.23" y="0">j</tspan><tspan x="13.82" y="0" letter-spacing="0em">o</tspan><tspan x="19.36" y="0">y!</tspan></text><text transform="translate(458.59 160.45)" font-size="10" fill="#231f20" font-family="SanFranciscoDisplay-Semibold, San Francisco Display" font-weight="700">Hea<tspan x="17.47" y="0" letter-spacing="0em">l</tspan><tspan x="20" y="0" letter-spacing="0.01em">t</tspan><tspan x="23.68" y="0">hier </tspan><tspan x="0" y="12" letter-spacing="0.01em">L</tspan><tspan x="5.01" y="12">i</tspan><tspan x="7.61" y="12" letter-spacing="-0.01em">f</tspan><tspan x="11.08" y="12">e</tspan><tspan x="16.47" y="12" letter-spacing="0em">s</tspan><tspan x="21.43" y="12" letter-spacing="0.03em">t</tspan><tspan x="25.31" y="12">yle</tspan></text><circle cx="674.12" cy="78.36" r="76.86" fill="#58595b" stroke="#be1e2d" stroke-miterlimit="10" stroke-width="3" opacity="0.27"/><text transform="translate(605.45 67.8)" font-size="21" fill="#231f20" font-family="SanFranciscoDisplay-Semibold, San Francisco Display" font-weight="700"><tspan letter-spacing="-0.08em">T</tspan><tspan x="9.28" y="0">oo E</tspan><tspan x="48.27" y="0" letter-spacing="0.01em">x</tspan><tspan x="59.17" y="0">pens</tspan><tspan x="105.21" y="0" letter-spacing="0.01em">i</tspan><tspan x="110.8" y="0" letter-spacing="0em">v</tspan><tspan x="120.9" y="0">e </tspan><tspan font-size="10"><tspan x="0" y="12" letter-spacing="0em">t</tspan><tspan x="3.6" y="12">o h</tspan><tspan x="16.92" y="12" letter-spacing="0em">a</tspan><tspan x="22.17" y="12" letter-spacing="0em">v</tspan><tspan x="26.98" y="12">e mu</tspan><tspan x="48.71" y="12" letter-spacing="0em">l</tspan><tspan x="51.25" y="12" letter-spacing="0.01em">t</tspan><tspan x="54.93" y="12">iple </tspan><tspan x="73.24" y="12" letter-spacing="0.02em">g</tspan><tspan x="79.21" y="12" letter-spacing="0.01em">y</tspan><tspan x="84.31" y="12">m member</tspan><tspan x="132.43" y="12">-</tspan><tspan x="0" y="24">ships</tspan></tspan></text><circle cx="92.08" cy="478.56" r="67.4" fill="#58595b" stroke="#be1e2d" stroke-miterlimit="10" stroke-width="3" opacity="0.27"/><circle cx="576.72" cy="496.61" r="64.84" fill="#58595b" stroke="#be1e2d" stroke-miterlimit="10" stroke-width="3" opacity="0.27"/><text transform="translate(45.42 457.22)" font-size="21" fill="#231f20" font-family="SanFranciscoDisplay-Semibold, San Francisco Display" font-weight="700">The Hours <tspan x="0" y="25.2">Do</tspan><tspan x="25.19" y="25.2" letter-spacing="-0.05em">n</tspan><tspan x="36.22" y="25.2" letter-spacing="0.03em">&apos;</tspan><tspan x="41.24" y="25.2">t F</tspan><tspan x="63.82" y="25.2" letter-spacing="0em">i</tspan><tspan x="69.2" y="25.2">t </tspan><tspan x="80.94" y="25.2" font-size="10" letter-spacing="0em">m</tspan><tspan x="89.56" y="25.2" font-size="10">y </tspan><tspan font-size="10"><tspan x="0" y="37.2">schedule</tspan></tspan></text><text transform="translate(525.36 474.45)" font-size="21" fill="#231f20" font-family="SanFranciscoDisplay-Semibold, San Francisco Display" font-weight="700">Ca<tspan x="24.12" y="0" letter-spacing="-0.05em">n</tspan><tspan x="35.14" y="0" letter-spacing="0.03em">&apos;</tspan><tspan x="40.17" y="0">t Find a </tspan><tspan x="0" y="25.2">Co</tspan><tspan x="24.71" y="25.2" letter-spacing="0em">n</tspan><tspan x="36.74" y="25.2" letter-spacing="0em">v</tspan><tspan x="46.84" y="25.2">enie</tspan><tspan x="87" y="25.2" letter-spacing="0em">n</tspan><tspan x="99.05" y="25.2">t </tspan><tspan x="0" y="50.4" letter-spacing="0em">G</tspan><tspan x="13.34" y="50.4" letter-spacing="0.01em">y</tspan><tspan x="24.04" y="50.4">m </tspan><tspan x="46.32" y="50.4" font-size="10" letter-spacing="0em">t</tspan><tspan x="49.92" y="50.4" font-size="10">o go </tspan><tspan x="70.81" y="50.4" font-size="10" letter-spacing="0em">t</tspan><tspan x="74.41" y="50.4" font-size="10">o</tspan></text><circle cx="62.34" cy="73" r="60.84" fill="#58595b" stroke="#be1e2d" stroke-miterlimit="10" stroke-width="3" opacity="0.27"/><circle cx="159.45" cy="121.84" r="29.94" fill="none" stroke="#be1e2d" stroke-miterlimit="10" stroke-width="3" opacity="0.36"/><circle cx="184.93" cy="192.37" r="29.94" fill="none" stroke="#be1e2d" stroke-miterlimit="10" stroke-width="3" opacity="0.36"/><circle cx="170.04" cy="263.44" r="29.94" fill="none" stroke="#be1e2d" stroke-miterlimit="10" stroke-width="3" opacity="0.36"/><circle cx="114.84" cy="311.74" r="29.94" fill="none" stroke="#be1e2d" stroke-miterlimit="10" stroke-width="3" opacity="0.36"/><circle cx="229.46" cy="371.63" r="29.94" fill="none" stroke="#be1e2d" stroke-miterlimit="10" stroke-width="3" opacity="0.36"/><circle cx="254.94" cy="442.16" r="29.94" fill="none" stroke="#be1e2d" stroke-miterlimit="10" stroke-width="3" opacity="0.36"/><circle cx="240.04" cy="513.22" r="29.94" fill="none" stroke="#be1e2d" stroke-miterlimit="10" stroke-width="3" opacity="0.36"/><circle cx="184.85" cy="561.53" r="29.94" fill="none" stroke="#be1e2d" stroke-miterlimit="10" stroke-width="3" opacity="0.36"/><circle cx="723.32" cy="378.06" r="29.94" fill="none" stroke="#be1e2d" stroke-miterlimit="10" stroke-width="3" opacity="0.36"/><circle cx="748.8" cy="448.6" r="29.94" fill="none" stroke="#be1e2d" stroke-miterlimit="10" stroke-width="3" opacity="0.36"/><circle cx="733.9" cy="519.66" r="29.94" fill="none" stroke="#be1e2d" stroke-miterlimit="10" stroke-width="3" opacity="0.36"/><circle cx="678.71" cy="567.97" r="29.94" fill="none" stroke="#be1e2d" stroke-miterlimit="10" stroke-width="3" opacity="0.36"/><text transform="translate(14.04 46.76)" font-size="21" fill="#231f20" font-family="SanFranciscoDisplay-Semibold, San Francisco Display" font-weight="700">Ca<tspan x="24.12" y="0" letter-spacing="-0.01em">n</tspan><tspan x="35.9" y="0">’t Find </tspan><tspan x="0" y="25.2" letter-spacing="-0.02em">A</tspan><tspan x="12.33" y="25.2" letter-spacing="0.01em">t</tspan><tspan x="20.12" y="25.2" letter-spacing="0.01em">t</tspan><tspan x="27.85" y="25.2" letter-spacing="0em">r</tspan><tspan x="35.47" y="25.2">a</tspan><tspan x="46.56" y="25.2" letter-spacing="0.01em">c</tspan><tspan x="57.68" y="25.2" letter-spacing="0.01em">ti</tspan><tspan x="71" y="25.2" letter-spacing="0em">v</tspan><tspan x="81.1" y="25.2">e </tspan><tspan x="0" y="50.4">Fi</tspan><tspan x="16.28" y="50.4" letter-spacing="0em">n</tspan><tspan x="28.34" y="50.4" letter-spacing="0.01em">t</tspan><tspan x="36.07" y="50.4">ness </tspan><tspan x="0" y="75.6">Classes</tspan></text><line x1="660.59" y1="94.98" x2="532.4" y2="94.98" fill="none" stroke="#58595b" stroke-miterlimit="10" stroke-width="0.5"/><line x1="180.43" y1="76.95" x2="73.92" y2="76.95" fill="none" stroke="#58595b" stroke-miterlimit="10" stroke-width="0.5"/><text transform="translate(528.89 88.82)" font-size="21" fill="#231f20" font-family="SanFranciscoDisplay-Semibold, San Francisco Display" font-weight="700">3<tspan x="11.82" y="0" letter-spacing="0.02em">2</tspan><tspan x="23.83" y="0" letter-spacing="-0.02em">.</tspan><tspan x="28.62" y="0">7%</tspan></text><line x1="700.91" y1="502.76" x2="572.72" y2="502.76" fill="none" stroke="#58595b" stroke-miterlimit="10" stroke-width="0.5"/><text transform="translate(650.5 496.61)" font-size="21" fill="#231f20" font-family="SanFranciscoDisplay-Semibold, San Francisco Display" font-weight="700"><tspan letter-spacing="-0.01em">2</tspan><tspan x="11.32" y="0">8.8 %</tspan></text><line x1="214.44" y1="485.06" x2="79.44" y2="485.06" fill="none" stroke="#58595b" stroke-miterlimit="10" stroke-width="0.5"/><text transform="translate(160.48 478.9)" font-size="21" fill="#231f20" font-family="SanFranciscoDisplay-Semibold, San Francisco Display" font-weight="700" letter-spacing="-0.01em">2<tspan x="11.32" y="0" letter-spacing="0em">8.8 %</tspan></text><text transform="translate(153.81 70.93)" font-size="21" fill="#231f20" font-family="SanFranciscoDisplay-Semibold, San Francisco Display" font-weight="700" letter-spacing="-0.13em">7<tspan x="8.47" y="0" letter-spacing="-0.02em">.</tspan><tspan x="13.26" y="0" letter-spacing="0em">7%</tspan></text><circle cx="754.67" cy="215.02" r="32.8" fill="none" stroke="#be1e2d" stroke-miterlimit="10" stroke-width="3" opacity="0.36"/><circle cx="679.37" cy="231.32" r="32.8" fill="none" stroke="#be1e2d" stroke-miterlimit="10" stroke-width="3" opacity="0.36"/><circle cx="604.43" cy="204.72" r="32.8" fill="none" stroke="#be1e2d" stroke-miterlimit="10" stroke-width="3" opacity="0.36"/><circle cx="560.1" cy="137.72" r="32.8" fill="none" stroke="#be1e2d" stroke-miterlimit="10" stroke-width="3" opacity="0.36"/><circle cx="278.27" cy="180.52" r="39.43" fill="#58595b" stroke="#be1e2d" stroke-miterlimit="10" stroke-width="3" opacity="0.27"/><text transform="translate(665.4 571.07)" font-size="10" fill="#231f20" font-family="SanFranciscoDisplay-Semibold, San Francisco Display" font-weight="700"><tspan letter-spacing="0em">E</tspan><tspan x="5.44" y="0" letter-spacing="0em">n</tspan><tspan x="11.23" y="0">j</tspan><tspan x="13.82" y="0" letter-spacing="0em">o</tspan><tspan x="19.36" y="0">y!</tspan></text></svg>